<svg xmlns="http://www.w3.org/2000/svg" viewBox="0 0 796 212" width="320">
  <path fill="currentColor" d="M84.638 209.847a105.449 105.449 0 0 1-19.9-6.177 106 106 0 0 1-18.004-9.77 106.856 106.856 0 0 1-15.688-12.943A106.809 106.809 0 0 1 18.1 165.266a105.981 105.981 0 0 1-9.77-18.006 105.319 105.319 0 0 1-6.177-19.9A106.75 106.75 0 0 1 0 106a106.75 106.75 0 0 1 2.154-21.362 105.411 105.411 0 0 1 6.177-19.9 106 106 0 0 1 9.773-18.005 106.796 106.796 0 0 1 12.943-15.688A106.769 106.769 0 0 1 46.734 18.1a106.032 106.032 0 0 1 18.005-9.773 105.412 105.412 0 0 1 19.9-6.177A106.75 106.75 0 0 1 106 0a106.75 106.75 0 0 1 21.362 2.154 105.391 105.391 0 0 1 19.9 6.177 106.032 106.032 0 0 1 18.005 9.773 106.754 106.754 0 0 1 15.688 12.943 106.857 106.857 0 0 1 12.943 15.688 106 106 0 0 1 9.773 18.005 105.411 105.411 0 0 1 6.177 19.9A106.75 106.75 0 0 1 212 106a106.75 106.75 0 0 1-2.154 21.362 105.318 105.318 0 0 1-6.177 19.9 105.981 105.981 0 0 1-9.773 18.006 106.858 106.858 0 0 1-12.943 15.688 106.856 106.856 0 0 1-15.687 12.944 106 106 0 0 1-18.005 9.773 105.469 105.469 0 0 1-19.9 6.177A106.764 106.764 0 0 1 106 212a106.764 106.764 0 0 1-21.362-2.153Zm5.494-130.534c2.9 3.221 4.369 8.078 4.369 14.438v38.6a33.829 33.829 0 0 0 2.759 13.409 34.648 34.648 0 0 0 7.594 11.076A36.3 36.3 0 0 0 130.5 167.15a35.029 35.029 0 0 0 13.973-2.811 32.7 32.7 0 0 0 10.852-7.6 34.284 34.284 0 0 0 7.026-11.145 36.808 36.808 0 0 0 2.5-13.442v-17.476A27.254 27.254 0 0 1 153 117.35a27.275 27.275 0 0 1-11.25-2.4v17.2c0 4.058-1 7.159-2.963 9.213-1.9 1.982-4.684 2.987-8.287 2.987a13.047 13.047 0 0 1-4.81-.873 10.989 10.989 0 0 1-3.768-2.454 11.208 11.208 0 0 1-2.479-3.791 13.66 13.66 0 0 1-.942-4.882v-44.3c0-10.913-4.221-20.03-12.206-26.362a39.77 39.77 0 0 0-13.17-6.755A54.7 54.7 0 0 0 77.1 52.65a44.049 44.049 0 0 0-16.066 2.92 37.989 37.989 0 0 0-12.677 8.067 36.34 36.34 0 0 0-8.319 12.173 39.22 39.22 0 0 0-2.988 15.24 40.644 40.644 0 0 0 3.333 16.521 36.176 36.176 0 0 0 8.48 11.922 37.246 37.246 0 0 0 11.348 7.225 32.368 32.368 0 0 0 11.939 2.431 40.7 40.7 0 0 0 7.85-.657v-21.384a33.225 33.225 0 0 1-3.05.141 16.179 16.179 0 0 1-5.774-1.064 15.485 15.485 0 0 1-5.1-3.174 16.687 16.687 0 0 1-5.025-12.562 15.42 15.42 0 0 1 4.987-11.381 16.736 16.736 0 0 1 5.264-3.321 16.885 16.885 0 0 1 6.249-1.2c5.504.003 9.736 1.605 12.58 4.766Zm51.2-.13a16.389 16.389 0 0 0-4.833 11.667 16.391 16.391 0 0 0 4.833 11.668A16.389 16.389 0 0 0 153 107.35a16.389 16.389 0 0 0 11.667-4.833 16.391 16.391 0 0 0 4.833-11.668 16.389 16.389 0 0 0-4.833-11.667A16.389 16.389 0 0 0 153 74.35a16.389 16.389 0 0 0-11.667 4.833Zm547.926 37.1v-60.84h18.07v60.19c0 10.66 6.241 17.03 15.99 17.03s16.12-6.37 16.12-17.03v-60.19h17.94v60.84c0 19.63-15.079 32.5-34.06 32.5S689.26 135.91 689.26 116.28Zm-124.8 24.18c-6.11-6.37-7.67-14.04-7.67-26.391 0-12.219 1.56-19.889 7.67-26.259 4.16-4.42 10.92-8.321 20.93-8.321s16.9 3.9 21.06 8.321c6.11 6.37 7.671 14.04 7.671 26.259 0 12.351-1.561 20.021-7.671 26.391-4.16 4.42-11.049 8.32-21.06 8.32s-16.768-3.903-20.928-8.323Zm13.13-42.771c-3.51 3.51-3.9 9.361-3.9 16.38s.391 13 3.9 16.51a10.376 10.376 0 0 0 7.8 2.99 10.682 10.682 0 0 0 7.93-2.99c3.51-3.51 3.9-9.49 3.9-16.51s-.391-12.87-3.9-16.38a10.685 10.685 0 0 0-7.93-2.99 10.38 10.38 0 0 0-7.798 2.988ZM371.54 142.8c-5.459-5.46-6.889-11.831-6.889-19.24V80.27h16.9v40.95c0 9.229 5.85 12.35 11.181 12.35s11.309-3.12 11.309-12.35V80.27h16.9V148H404.43v-6.24a23.178 23.178 0 0 1-16.9 7.02c-6.76 0-12.22-2.21-15.99-5.98Zm405.99 5.2V55.44h18.07V148Zm-147.29 0V80.27h16.51v6.5c3.25-3.9 9.75-7.28 17.03-7.28 6.63 0 11.31 1.69 15.99 6.37l-12.74 12.87c-2.6-2.6-4.81-4.03-8.969-4.03-5.2 0-10.921 3.9-10.921 12.48V148Zm-105.691 0v-41.34c0-8.97-5.719-11.96-11.049-11.96s-10.921 3.12-10.921 11.96V148h-16.9V55.44h16.9v31.07a22.379 22.379 0 0 1 16.25-7.02c14.819 0 22.62 10.4 22.62 24.7V148Zm-63.44 0c-13.78 0-19.63-9.75-19.63-19.37V95.091h-7.15v-12.87h7.15V62.2h16.9v20.021h11.96v12.87H458.38v32.5c0 3.9 1.82 6.11 5.85 6.11h6.11v14.3Zm-124.67 0-5.459-16.38h-32.89L292.5 148h-18.85l33.67-92.56h14.17l33.8 92.56Zm-33.28-31.589h23.01l-11.31-33.671Z"/>
</svg>