<svg xmlns="http://www.w3.org/2000/svg" viewBox="0 0 988 200" width="320" aria-label="AuthorUI">
  <title>AuthorUI</title>
  <desc>Copyright @copy; Author Software, Inc.</desc>
  <path d="M45.591-119.238,0,0H20.875L31.73-29.893H81.663L92.518,0h20.875L67.8-119.238ZM37.575-45.925,56.446-98.2h.668l18.7,52.271Zm85.838-40.414v53.774c0,23.213,10.354,34.9,31.062,34.9q16.032,0,27.054-13.527V0h19.038V-86.339H181.529v52.772a30.989,30.989,0,0,1-8.35,14.7c-3.841,3.507-7.849,5.344-12.024,5.344-6.68,0-11.356-1.67-14.362-4.843-3.006-3.34-4.342-8.35-4.342-15.364V-86.339Zm124.248-27.889-19.038,7.849v20.04H213.092v15.7h15.531v48.764c0,7.014,1.67,12.191,5.01,15.865Q238.893,0,250.166,0H264.7V-15.7H253.339A5.708,5.708,0,0,1,249-17.2a6.792,6.792,0,0,1-1.336-4.676V-70.641h19.2v-15.7h-19.2Zm33.4-7.348V0H300.1V-48.263c0-7.348,1.67-13.193,5.177-17.869A16.254,16.254,0,0,1,319.3-73.146c6.513,0,11.356,2,14.7,6.179,2.839,3.841,4.342,9.519,4.342,16.867V0H357.38V-53.44c0-11.523-2.505-20.207-7.348-26.052-5.177-6.179-13.026-9.185-23.547-9.185A31.037,31.037,0,0,0,311.956-85.5,30.145,30.145,0,0,0,300.1-74.816v-46.76ZM417.5-88.677c-13.193,0-23.714,4.175-31.563,12.859C377.921-67.3,374.08-56.446,374.08-43.086c0,13.193,3.841,24.048,11.69,32.4C393.786-2,404.307,2.338,417.5,2.338c13.026,0,23.714-4.342,31.73-13.026,7.682-8.35,11.69-19.205,11.69-32.4,0-13.36-4.008-24.215-11.857-32.732C441.047-84.5,430.526-88.677,417.5-88.677Zm0,15.531c7.849,0,14.028,3.006,18.37,9.352,3.674,5.344,5.678,12.358,5.678,20.708,0,8.183-2,15.03-5.678,20.541-4.342,6.179-10.521,9.352-18.37,9.352-8.016,0-14.028-3.173-18.37-9.352q-5.511-8.016-5.511-20.541c0-8.35,1.837-15.364,5.511-20.708C403.472-70.14,409.484-73.146,417.5-73.146ZM518.368-88.677A20.654,20.654,0,0,0,504.674-84a29.4,29.4,0,0,0-8.183,10.02V-86.339H477.62V0h18.871V-45.758c0-7.348,2.171-13.193,6.847-17.7a18.5,18.5,0,0,1,13.527-5.845,41.092,41.092,0,0,1,12.358,1.837V-86.506A24.227,24.227,0,0,0,518.368-88.677Zm23.38-30.561v73.981c0,15.531,4.342,27.388,13.193,35.738,8.35,7.849,20.541,11.857,36.406,11.857q23.547,0,36.573-12.024,13.026-12.274,13.026-35.571v-73.981H621.407v74.315c0,10.354-2.505,17.869-7.181,22.879C609.383-17.2,601.7-14.7,591.347-14.7c-10.521,0-18.2-2.505-22.879-7.348-4.843-5.01-7.181-12.525-7.181-22.879v-74.315Zm122.578,0V0h19.539V-119.238Z" transform="translate(292 164)"/>
  <path d="M79.847-972.032a99.481,99.481,0,0,1-18.772-5.827,100,100,0,0,1-16.986-9.22,100.806,100.806,0,0,1-14.8-12.21,100.765,100.765,0,0,1-12.21-14.8,99.981,99.981,0,0,1-9.22-16.987,99.361,99.361,0,0,1-5.827-18.771A100.707,100.707,0,0,1,0-1070a100.707,100.707,0,0,1,2.032-20.153,99.446,99.446,0,0,1,5.827-18.772,100,100,0,0,1,9.22-16.986,100.762,100.762,0,0,1,12.21-14.8,100.734,100.734,0,0,1,14.8-12.21,100.037,100.037,0,0,1,16.986-9.22,99.451,99.451,0,0,1,18.772-5.827A100.71,100.71,0,0,1,100-1170a100.71,100.71,0,0,1,20.153,2.032,99.432,99.432,0,0,1,18.772,5.827,100.037,100.037,0,0,1,16.986,9.22,100.717,100.717,0,0,1,14.8,12.21,100.813,100.813,0,0,1,12.21,14.8,100,100,0,0,1,9.22,16.986,99.446,99.446,0,0,1,5.827,18.772A100.707,100.707,0,0,1,200-1070a100.707,100.707,0,0,1-2.032,20.153,99.36,99.36,0,0,1-5.827,18.771,99.981,99.981,0,0,1-9.22,16.987,100.81,100.81,0,0,1-12.21,14.8,100.806,100.806,0,0,1-14.8,12.21,100,100,0,0,1-16.986,9.22,99.5,99.5,0,0,1-18.772,5.827A100.723,100.723,0,0,1,100-970,100.723,100.723,0,0,1,79.847-972.032Zm5.183-123.145c2.735,3.039,4.121,7.621,4.121,13.62v36.415a31.914,31.914,0,0,0,2.6,12.65,32.687,32.687,0,0,0,7.164,10.449,34.248,34.248,0,0,0,24.195,9.73,33.047,33.047,0,0,0,13.182-2.652,30.853,30.853,0,0,0,10.238-7.172,32.342,32.342,0,0,0,6.629-10.514,34.725,34.725,0,0,0,2.357-12.682v-16.487a25.712,25.712,0,0,1-11.18,2.525,25.732,25.732,0,0,1-10.613-2.264v16.225c0,3.828-.941,6.753-2.8,8.692-1.789,1.87-4.419,2.818-7.818,2.818a12.309,12.309,0,0,1-4.537-.824,10.367,10.367,0,0,1-3.555-2.315,10.574,10.574,0,0,1-2.339-3.576,12.887,12.887,0,0,1-.889-4.605v-41.793c0-10.3-3.982-18.9-11.515-24.87a37.518,37.518,0,0,0-12.424-6.372,51.606,51.606,0,0,0-15.117-2.154,41.557,41.557,0,0,0-15.156,2.755,35.839,35.839,0,0,0-11.96,7.61,34.282,34.282,0,0,0-7.848,11.484,37,37,0,0,0-2.819,14.377,38.344,38.344,0,0,0,3.144,15.586,34.13,34.13,0,0,0,8,11.247,35.139,35.139,0,0,0,10.706,6.816,30.537,30.537,0,0,0,11.264,2.293,38.394,38.394,0,0,0,7.405-.62v-20.173c-.958.089-1.927.133-2.877.133a15.263,15.263,0,0,1-5.448-1,14.611,14.611,0,0,1-4.812-2.995,15.742,15.742,0,0,1-4.74-11.851,14.547,14.547,0,0,1,4.7-10.737,15.788,15.788,0,0,1,4.966-3.133,15.928,15.928,0,0,1,5.895-1.13C78.353-1099.67,82.346-1098.159,85.029-1095.177Zm48.3-.122a15.461,15.461,0,0,0-4.559,11.006,15.463,15.463,0,0,0,4.559,11.007,15.461,15.461,0,0,0,11.006,4.559,15.461,15.461,0,0,0,11.006-4.559,15.463,15.463,0,0,0,4.559-11.007,15.461,15.461,0,0,0-4.559-11.006,15.461,15.461,0,0,0-11.006-4.559A15.461,15.461,0,0,0,133.333-1095.3Z" transform="translate(0 1170)" fill="#4c5add" stroke="rgba(0,0,0,0)" stroke-width="1"/>
</svg>
